<?xml version="1.0" encoding="utf-8"?>
<!-- Generator: Adobe Illustrator 19.2.0, SVG Export Plug-In . SVG Version: 6.00 Build 0)  -->
<svg version="1.1" id="Capa_1" xmlns="http://www.w3.org/2000/svg" xmlns:xlink="http://www.w3.org/1999/xlink" x="0px" y="0px"
	 viewBox="0 0 512 512" style="enable-background:new 0 0 512 512;" xml:space="preserve">
<style type="text/css">
	.st0{fill:#3C49AF;}
	.st1{fill:#E5DB25;}
</style>
<path class="st0" d="M422.9,453.7c29.9-80.5,29.9-314.9,0-395.4l8.8-46.4c0.6-2.9-0.2-5.9-2.1-8.2c-1.9-2.3-4.7-3.6-7.7-3.6H90.2
	c-3,0-5.8,1.3-7.7,3.6s-2.7,5.3-2.1,8.2l8.8,46.4c-29.9,80.5-29.9,314.9,0,395.4l-8.8,46.4c-0.6,2.9,0.2,5.9,2.1,8.2
	c1.9,2.3,4.7,3.6,7.7,3.6h331.6c0,0,0,0,0,0c5.5,0,10-4.5,10-10c0-0.9-0.1-1.8-0.4-2.7L422.9,453.7z M409.8,20l-5.5,29.2H107.8
	L102.3,20H409.8z M106.5,69.2h299.1c26.4,78.1,26.4,295.5,0,373.6H106.5C80.1,364.7,80.1,147.3,106.5,69.2z M102.2,492l5.5-29.2
	h296.5l5.5,29.2H102.2z"/>
<path class="st1" d="M151.4,336.2C151.4,336.2,151.5,336.2,151.4,336.2c0.3,0,0.5,0.1,0.7,0.1c0.8,0.1,1.6,0.1,2.4,0.1
	c6.7,0,16.7-3,32.4-7.9c15.2-4.7,32.5-10.1,43.8-10.7c1.1-0.1,2.2-0.1,3.3-0.1c9.2,0,18.3,2.1,28,4.4c11.6,2.7,24.8,5.8,40.5,5.8
	c12.8,0,44.7-2.3,65.5-24.1c12.3-12.8,18.1-29.7,17.3-50.2c-2.3-56.1-63.1-80.3-93.7-80.3c-46.4,0-72.2,38.2-81.4,63.1
	c-62.4,9.1-83.5,59.7-83.5,73C126.7,323.8,136.1,334,151.4,336.2z M291.6,193.3c20.9,0,71.9,17.6,73.7,61.1
	c0.6,14.8-3.3,26.8-11.8,35.5c-15.9,16.6-43.1,17.9-51.1,17.9c-13.3,0-24.8-2.7-35.9-5.2c-10.4-2.4-21.1-4.9-32.5-4.9
	c-1.5,0-3,0-4.4,0.1c-8.4,0.5-18.5,2.8-28.8,5.7c16.1-22.9,25-50.1,26.5-55c0,0,0-0.1,0-0.1c0,0,0-0.1,0-0.1
	C228,246.1,243.6,193.3,291.6,193.3z M202.3,258.4c-9.5,22.9-27.4,54.7-49,57.8c-6.6-1.2-6.7-4.5-6.7-6.7
	C147,304.3,159.8,269.5,202.3,258.4z"/>
</svg>
