<?xml version="1.0" encoding="utf-8"?>
<!-- Generator: Adobe Illustrator 19.2.0, SVG Export Plug-In . SVG Version: 6.00 Build 0)  -->
<svg version="1.1" id="Capa_1" xmlns="http://www.w3.org/2000/svg" xmlns:xlink="http://www.w3.org/1999/xlink" x="0px" y="0px"
	 viewBox="0 0 512 512" style="enable-background:new 0 0 512 512;" xml:space="preserve">
<style type="text/css">
	.st0{fill:#AF0C1C;}
</style>
<g>
	<path class="st0" d="M394.3,455.4c0,0-0.1-0.1-0.1-0.1V89.7c0-11.1-17.8-42.7-26.6-57.7v-7.9c3.3-2.2,5.6-5.9,5.6-10.2
		c0-6.6-5.3-12-11.8-12.2C358.7,1.5,334.6,0,254.6,0c-78.3,0-98.5,1.5-101.4,1.8c-6.5,0.2-11.7,5.6-11.7,12.2c0,2.6,0.8,5,2.2,6.9
		V32c-8.8,15-26.6,46.6-26.6,57.7v368.6c0,0.2,0,0.4,0.1,0.5c0,0.3,0,0.6,0.1,0.9c0,0.3,0.1,0.5,0.2,0.7c0.1,0.2,0.1,0.5,0.2,0.7
		c0.1,0.3,0.2,0.5,0.3,0.7c0.1,0.2,0.2,0.4,0.4,0.7c0.1,0.2,0.3,0.4,0.5,0.6c0.2,0.2,0.3,0.4,0.5,0.6c0.2,0.2,0.4,0.4,0.6,0.5
		c0.2,0.2,0.4,0.3,0.6,0.5c0.3,0.2,0.5,0.3,0.8,0.5c0.1,0.1,0.3,0.2,0.4,0.3c1,0.5,6.6,3,16.1,6.3c-0.7,1.2-1.1,2.6-1.1,4v13.1
		c0,3.6,2.4,6.7,5.9,7.7c3.6,1,58.1,15.5,120.8,15.5c36.8,0,76.4-5,110.1-20.7c2.8-1.3,4.6-4.1,4.6-7.2v-10c0-1.4-0.4-2.6-1-3.8
		c4.2-1.5,8.4-3,12.7-4.6C393.9,464.1,395.9,459.5,394.3,455.4z M133,195.7c2.9-0.3,5.8-0.7,8.7-1.1c3.1-0.5,6.2-1.2,9.4-1.9
		c3.2-0.6,6.4-1.4,9.6-2.1c3.2-1,6.4-2,9.6-3c3.2-1.1,6.6-2,9.8-3.3c3.2-1.4,6.4-2.8,9.6-4.2c3.2-1.5,6.6-2.8,9.8-4.4
		c3.1-1.8,6.2-3.6,9.4-5.4c3.1-1.8,6.4-3.6,9.5-5.5c2.9-2.1,5.9-4.3,8.9-6.4c3-2.2,5.9-4.4,8.9-6.6c2.9-2.3,5.5-4.8,8.2-7.3
		c5-4.7,10-9.3,15-14l3.6-3.5l2.9-2.5c1.9-1.7,3.8-3.3,6.2-5c2.2-1.7,4.4-3.4,6.7-4.8c2.3-1.5,4.5-3.2,7-4.4
		c2.4-1.4,4.7-2.8,7.2-3.9c2.4-1.3,4.8-2.5,7.3-3.5c2.5-1.1,5-2.1,7.5-3l3.8-1.4l3.9-1.2c20.7-6.1,42.6-7.2,61.9-6.1
		c0.3,0,0.6,0,0.9,0.1v218.5c-7.2-1.9-14.7-3.5-22.9-4.5c-13.4-1.6-28.1-1.9-43.3,0.4c-3.8,0.5-7.6,1.1-11.4,2.1
		c-3.8,0.8-7.6,1.9-11.4,3.1c-7.6,2.2-15.1,5.2-22.3,8.8c-3.7,1.7-7.1,3.7-10.6,5.7c-3.6,1.9-6.8,4.2-10,6.5
		c-3.3,2.2-6.5,4.8-9.8,7.5l-4.9,4l-3.7,3.5c-4.8,4.5-9.5,9.1-14.2,13.6l-6.5,6.3l-6.9,5.7c-2.3,1.9-4.6,3.8-6.9,5.7
		c-2.4,1.8-4.8,3.4-7.2,5.1c-2.4,1.7-4.8,3.4-7.1,5.1c-2.4,1.6-4.9,3-7.4,4.6c-2.5,1.5-4.9,3-7.3,4.5c-2.5,1.3-5,2.6-7.5,3.9
		c-2.5,1.3-5,2.6-7.4,3.9c-2.5,1.1-5.1,2.1-7.5,3.3c-2.5,1.1-4.9,2.3-7.4,3.3c-0.6,0.2-1.2,0.4-1.8,0.7L133,195.7L133,195.7z
		 M158.5,38.2c0.7-1.2,1.1-2.6,1.1-4v-8.1h192.2v8.1c0,1.4,0.4,2.8,1.1,4c4,6.7,8.1,14,11.8,20.9c-5.2-1.2-10.6-2.2-16.3-3
		c-13.1-1.6-27.6-1.9-42.4,0.4c-3.7,0.5-7.5,1.1-11.2,2.1c-3.8,0.8-7.5,1.9-11.2,3.1c-7.5,2.2-14.8,5.2-21.8,8.8
		c-3.6,1.7-7,3.7-10.4,5.7c-3.5,1.9-6.6,4.2-9.8,6.5c-3.2,2.2-6.4,4.8-9.6,7.5l-4.8,4l-3.7,3.5c-4.7,4.5-9.3,9.1-14,13.6l-6.4,6.3
		l-6.8,5.7c-2.3,1.9-4.5,3.8-6.7,5.7c-2.3,1.8-4.7,3.4-7,5.1c-2.4,1.7-4.7,3.4-7,5.1c-2.4,1.6-4.8,3-7.2,4.6c-2.4,1.5-4.8,3-7.2,4.5
		c-2.5,1.3-4.9,2.6-7.4,3.9c-2.4,1.3-4.9,2.6-7.3,3.9c-2.5,1.1-5,2.1-7.4,3.3c-2.1,0.9-4.1,1.9-6.2,2.8V89.7
		C133.3,84.2,146.4,58.6,158.5,38.2z M133,453v-7.7c0.8-0.1,1.6-0.1,2.4-0.2c3.1-0.3,6.2-0.7,9.4-1.2c3.2-0.5,6.3-1.2,9.6-1.9
		c3.2-0.6,6.5-1.4,9.8-2.1c3.2-1,6.5-2,9.8-3c3.3-1.1,6.7-2,10-3.3c3.2-1.4,6.5-2.8,9.8-4.2c3.3-1.5,6.7-2.8,10-4.4
		c3.2-1.8,6.4-3.6,9.6-5.4c3.2-1.8,6.5-3.6,9.6-5.5c3-2.1,6-4.3,9-6.4c3-2.2,6-4.4,9.1-6.6c2.9-2.3,5.6-4.8,8.4-7.3
		c5.1-4.7,10.2-9.3,15.3-14l3.6-3.5l3-2.5c1.9-1.7,3.9-3.3,6.3-5c2.3-1.7,4.5-3.4,6.9-4.8c2.3-1.5,4.6-3.2,7.1-4.4
		c2.4-1.4,4.8-2.8,7.3-3.9c2.5-1.3,4.9-2.5,7.5-3.5c2.5-1.1,5.1-2.1,7.7-2.9l3.9-1.4l3.9-1.2c18.7-5.4,38.4-6.9,56.4-6.3v112.6
		C258.4,496.8,155.5,461.8,133,453z M149.3,280.5c0-17.8,7.6-35.2,20.1-48.2c8.9-9.4,19.6-16,32-19.7c9.4-2.8,16.3-2.5,18.7-1.6
		l-4.3,13.3c-2.8-0.7-8.7-0.5-16.2,1.7c-8.2,2.4-16,7.6-21.9,14.4c-7.5,8.9-12.4,21.1-12.4,33.6c0,14.4,7.4,23,24.3,18
		c6.2-1.9,12.6-4.9,17.2-8.4l1.4,11.7c-4.6,3.4-12.4,7.5-22.4,10.5C163.6,312.3,149.3,302.8,149.3,280.5z M238,290.3
		c21.1-6.3,35.9-28.7,35.9-49.7c0-13.7-8.8-23.1-25.5-18.2c-21.1,6.3-35.8,28.8-35.8,49.8C212.6,287,222.3,295,238,290.3z
		 M246.6,234.4c9-2.7,11.8,4.4,11.8,10.7c0,12.3-7.4,29.8-18.5,33.1c-7.5,2.2-12.1-2.4-12.1-10.9
		C227.9,255.8,234.8,237.9,246.6,234.4z M288.8,273.8l-14.9,4.4l17.3-95.5l14.8-4.4L288.8,273.8z M318.6,266.4
		c7.9-2.4,16-8.7,22.2-22l0.4-0.1c-0.5,5.5-1,10.6-1.1,14.3l13.8-4.1c-0.3-7.3,0.8-19.2,2.5-29l6.4-34.2c-4.7-0.1-12,0.8-18.7,2.8
		c-28.9,8.6-43.7,35.5-43.7,56.6C300.3,263.2,307.5,269.7,318.6,266.4z M340,206.7c2.7-0.8,4.6-1.1,6.1-1.2l-3.3,17.3
		c-2.9,16.7-11.3,27.8-18.2,29.9c-6.5,1.9-8.9-2.7-8.9-9.2C315.7,229.3,326.3,210.8,340,206.7z"/>
</g>
</svg>
